<!-- https://www.radix-ui.com/icons -->
<svg xmlns="http://www.w3.org/2000/svg">
  <symbol id="arrow-top-right" viewBox="0 0 15 15" fill="none">
    <path
      d="M3.64645 11.3536C3.45118 11.1583 3.45118 10.8417 3.64645 10.6465L10.2929 4L6 4C5.72386 4 5.5 3.77614 5.5 3.5C5.5 3.22386 5.72386 3 6 3L11.5 3C11.6326 3 11.7598 3.05268 11.8536 3.14645C11.9473 3.24022 12 3.36739 12 3.5L12 9.00001C12 9.27615 11.7761 9.50001 11.5 9.50001C11.2239 9.50001 11 9.27615 11 9.00001V4.70711L4.35355 11.3536C4.15829 11.5488 3.84171 11.5488 3.64645 11.3536Z"
      fill="currentColor"
      fill-rule="evenodd"
      clip-rule="evenodd"
    ></path>
  </symbol>
  <symbol id="star-filled" viewBox="0 0 15 15" fill="none">
    <path
      d="M7.22303 0.665992C7.32551 0.419604 7.67454 0.419604 7.77702 0.665992L9.41343 4.60039C9.45663 4.70426 9.55432 4.77523 9.66645 4.78422L13.914 5.12475C14.18 5.14607 14.2878 5.47802 14.0852 5.65162L10.849 8.42374C10.7636 8.49692 10.7263 8.61176 10.7524 8.72118L11.7411 12.866C11.803 13.1256 11.5206 13.3308 11.2929 13.1917L7.6564 10.9705C7.5604 10.9119 7.43965 10.9119 7.34365 10.9705L3.70718 13.1917C3.47945 13.3308 3.19708 13.1256 3.25899 12.866L4.24769 8.72118C4.2738 8.61176 4.23648 8.49692 4.15105 8.42374L0.914889 5.65162C0.712228 5.47802 0.820086 5.14607 1.08608 5.12475L5.3336 4.78422C5.44573 4.77523 5.54342 4.70426 5.58662 4.60039L7.22303 0.665992Z"
      fill="currentColor"
    ></path>
  </symbol>
</svg>
